<?xml version="1.0" encoding="UTF-8"?>
<!-- Generator: Adobe Illustrator 16.0.0, SVG Export Plug-In . SVG Version: 6.00 Build 0)  -->
<!DOCTYPE svg PUBLIC "-//W3C//DTD SVG 1.1//EN" "http://www.w3.org/Graphics/SVG/1.1/DTD/svg11.dtd">
<svg version="1.1" id="Layer_1" xmlns="http://www.w3.org/2000/svg" xmlns:xlink="http://www.w3.org/1999/xlink" x="0px" y="0px" width="512px" height="512px" viewBox="0 0 512 512" enable-background="new 0 0 512 512" xml:space="preserve">
<path d="M447.5,0h-384c-17.672,0-32,14.313-32,32v448c0,17.688,14.328,32,32,32h384c17.688,0,32-14.313,32-32V32  C479.5,14.313,465.188,0,447.5,0z M95.5,32c17.672,0,32,14.313,32,32s-14.328,32-32,32s-32-14.313-32-32S77.828,32,95.5,32z   M447.5,480h-384V128h384V480z M415.5,96c-17.688,0-32-14.313-32-32s14.313-32,32-32s32,14.313,32,32S433.188,96,415.5,96z   M95.5,208c0-8.844,7.156-16,16-16h288c8.844,0,16,7.156,16,16s-7.156,16-16,16h-288C102.656,224,95.5,216.844,95.5,208z M95.5,304  c0-8.844,7.156-16,16-16h288c8.844,0,16,7.156,16,16s-7.156,16-16,16h-288C102.656,320,95.5,312.844,95.5,304z M95.5,400  c0-8.844,7.156-16,16-16h288c8.844,0,16,7.156,16,16s-7.156,16-16,16h-288C102.656,416,95.5,408.844,95.5,400z"/>
</svg>